# xmcd
#
# Track frame offsets:
#	150
#	19197
#	39592
#	54705
#	68867
#	85087
#	103857
#	117795
#	128545
#	144970
#	160882
#	179357
#
# Disc length: 2691 seconds
#
# Revision: 1
# Processed by: cddbd v1.5PL3 Copyright (c) Steve Scherf et al.
# Submitted via: CDex 1.50Beta5
#
DISCID=9c0a810c
DTITLE=Various Artist - Get Along
DYEAR=1900
DGENRE=
TTITLE0=アリス/秋止符
TTITLE1=チューリップ/虹とスニーカーの頃
TTITLE2=尾崎亜美/マイ・ピュア・レディ
TTITLE3=トワ・エ・モワ/或る日突然
TTITLE4=RCサクセッション/I LIKE YOU
TTITLE5=BOOWY/季節が君だけを変える
TTITLE6=長渕剛/順子
TTITLE7=加藤和彦/家をつくるなら
TTITLE8=甲斐バンド/氷のくちびる
TTITLE9=長淵剛/巡恋歌
TTITLE10=ハイ・ファイ・セット/燃える秋
TTITLE11=オフコース/さよなら
EXTD=
EXTT0=
EXTT1=
EXTT2=
EXTT3=
EXTT4=
EXTT5=
EXTT6=
EXTT7=
EXTT8=
EXTT9=
EXTT10=
EXTT11=
PLAYORDER=
